<?xml version="1.0" encoding="utf-8"?>
<!-- Generator: Adobe Illustrator 20.1.0, SVG Export Plug-In . SVG Version: 6.00 Build 0)  -->
<svg version="1.0" id="Layer_1" xmlns="http://www.w3.org/2000/svg" xmlns:xlink="http://www.w3.org/1999/xlink" x="0px" y="0px"
	 viewBox="0 0 390.7 73.4" style="enable-background:new 0 0 390.7 73.4;" xml:space="preserve">
<style type="text/css">
	.st0{fill:#E24301;}
	.st1{clip-path:url(#SVGID_2_);fill:#E24301;}
</style>
<g>
	<polygon class="st0" points="87.8,3.1 74.8,46.1 60.1,3.1 45.9,3.1 45.9,3.3 31.2,46.2 18.2,3.1 0,3.1 22.4,72.8 39,72.8 53,30.5 
		67,72.8 83.6,72.8 106,3.1 	"/>
	<g>
		<defs>
			<rect id="SVGID_1_" x="0" width="390.7" height="73.4"/>
		</defs>
		<clipPath id="SVGID_2_">
			<use xlink:href="#SVGID_1_"  style="overflow:visible;"/>
		</clipPath>
		<path class="st1" d="M132.9,25.6c-3.7-2.3-8.2-3.8-13.6-3.8c-13.4,0-24.6,11-24.6,25.8c0,14.7,11.2,25.8,24.6,25.8
			c5.4,0,9.9-1.4,13.6-3.8v2.8h16.5V22.9h-16.5V25.6z M132.9,55.2c-3.1,3.6-6.6,4.6-10.3,4.6c-6.7,0-11.6-5.4-11.6-12.2
			c0-6.8,4.9-12.3,11.6-12.3c3.7,0,7.2,1.1,10.3,4.7V55.2z"/>
		<path class="st1" d="M181.7,21.4c-5.3,0-9.7,1.7-13.7,4.9v-3.4h-16.5v49.4h16.5v-31c2.9-3.3,6.1-5,9.2-5c5.4,0,9,3.4,9,10.4v25.6
			h16.6V44.1C202.8,30.1,194.3,21.4,181.7,21.4"/>
		<path class="st1" d="M242.5,25.6c-3.7-2.3-8.2-3.8-13.6-3.8c-13.4,0-24.6,11-24.6,25.8c0,14.7,11.2,25.8,24.6,25.8
			c5.4,0,9.9-1.4,13.6-3.8v2.8h16.5V22.9h-16.5V25.6z M242.5,55.2c-3.1,3.6-6.6,4.6-10.3,4.6c-6.7,0-11.6-5.4-11.6-12.2
			c0-6.8,4.9-12.3,11.6-12.3c3.7,0,7.2,1.1,10.3,4.7V55.2z"/>
		<polygon class="st1" points="314.8,22.9 295.1,22.9 277.9,41.5 277.9,0 261.4,0 261.4,72.4 277.9,72.4 277.9,62.7 284.8,55.2 
			296.6,72.4 316.4,72.4 296,43.1 		"/>
		<path class="st1" d="M344.6,25.6c-3.7-2.3-8.2-3.8-13.6-3.8c-13.4,0-24.6,11-24.6,25.8c0,14.7,11.2,25.8,24.6,25.8
			c5.4,0,9.9-1.4,13.6-3.8v2.8h16.5V22.9h-16.5V25.6z M344.6,55.2c-3.1,3.6-6.6,4.6-10.3,4.6c-6.7,0-11.6-5.4-11.6-12.2
			c0-6.8,4.9-12.3,11.6-12.3c3.7,0,7.2,1.1,10.3,4.7V55.2z"/>
		<path class="st1" d="M377.2,45.5c-7.5,0-13.5,6-13.5,13.5c0,7.5,6,13.5,13.5,13.5s13.5-6,13.5-13.5
			C390.7,51.6,384.6,45.5,377.2,45.5 M377,64.1h-1.9l-4.7-5.4v5.4H368v-9.8h1.9l4.7,5.5v-5.5h2.4V64.1z M378.4,64.1v-1.2l4.9-6.5
			h-4.6v-2.2h8.2v1.2l-4.7,6.5h4.8v2.2H378.4z"/>
	</g>
</g>
</svg>
